<svg xmlns="http://www.w3.org/2000/svg" height="960" width="960" viewBox="0 0 33 33" class="tr-ee-9nVcwM-qrcode-black" xmlns:xlink="http://www.w3.org/1999/xlink"><path fill="transparent" d="M0,0 h33v33H0z" shape-rendering="crispEdges"/><path fill="#000000" d="M0 0h7v1H0zM9 0h1v1H9zM11 0h2v1H11zM14 0h1v1H14zM19 0h1v1H19zM21 0h2v1H21zM24 0h1v1H24zM26,0 h7v1H26zM0 1h1v1H0zM6 1h1v1H6zM8 1h1v1H8zM10 1h1v1H10zM13 1h2v1H13zM16 1h2v1H16zM19 1h1v1H19zM21 1h1v1H21zM26 1h1v1H26zM32,1 h1v1H32zM0 2h1v1H0zM2 2h3v1H2zM6 2h1v1H6zM8 2h1v1H8zM10 2h1v1H10zM12 2h1v1H12zM14 2h6v1H14zM21 2h1v1H21zM24 2h1v1H24zM26 2h1v1H26zM28 2h3v1H28zM32,2 h1v1H32zM0 3h1v1H0zM2 3h3v1H2zM6 3h1v1H6zM8 3h1v1H8zM12 3h1v1H12zM14 3h1v1H14zM16 3h1v1H16zM18 3h1v1H18zM20 3h5v1H20zM26 3h1v1H26zM28 3h3v1H28zM32,3 h1v1H32zM0 4h1v1H0zM2 4h3v1H2zM6 4h1v1H6zM8 4h1v1H8zM10 4h2v1H10zM13 4h2v1H13zM16 4h6v1H16zM23 4h2v1H23zM26 4h1v1H26zM28 4h3v1H28zM32,4 h1v1H32zM0 5h1v1H0zM6 5h1v1H6zM8 5h4v1H8zM13 5h3v1H13zM22 5h1v1H22zM24 5h1v1H24zM26 5h1v1H26zM32,5 h1v1H32zM0 6h7v1H0zM8 6h1v1H8zM10 6h1v1H10zM12 6h1v1H12zM14 6h1v1H14zM16 6h1v1H16zM18 6h1v1H18zM20 6h1v1H20zM22 6h1v1H22zM24 6h1v1H24zM26,6 h7v1H26zM9 7h1v1H9zM11 7h2v1H11zM15 7h4v1H15zM20 7h1v1H20zM22 7h1v1H22zM2 8h1v1H2zM5 8h7v1H5zM14 8h2v1H14zM17 8h2v1H17zM20 8h2v1H20zM23 8h1v1H23zM25 8h1v1H25zM27 8h5v1H27zM0 9h1v1H0zM2 9h1v1H2zM5 9h1v1H5zM9 9h8v1H9zM19 9h3v1H19zM23 9h5v1H23zM30,9 h3v1H30zM2 10h3v1H2zM6 10h1v1H6zM9 10h2v1H9zM13 10h1v1H13zM15 10h2v1H15zM19 10h2v1H19zM23 10h1v1H23zM26 10h3v1H26zM30 10h1v1H30zM32,10 h1v1H32zM0 11h2v1H0zM4 11h2v1H4zM7 11h1v1H7zM24 11h2v1H24zM27 11h1v1H27zM29 11h1v1H29zM1 12h4v1H1zM6 12h1v1H6zM8 12h2v1H8zM23 12h1v1H23zM26 12h3v1H26zM30 12h1v1H30zM32,12 h1v1H32zM4 13h2v1H4zM8 13h1v1H8zM10 13h1v1H10zM24 13h1v1H24zM26 13h5v1H26zM32,13 h1v1H32zM0 14h1v1H0zM2 14h2v1H2zM6 14h5v1H6zM23 14h1v1H23zM26 14h2v1H26zM29 14h1v1H29zM32,14 h1v1H32zM2 15h2v1H2zM7 15h2v1H7zM10 15h1v1H10zM22 15h4v1H22zM27 15h4v1H27zM32,15 h1v1H32zM0 16h3v1H0zM5 16h3v1H5zM9 16h2v1H9zM22 16h1v1H22zM26 16h2v1H26zM29 16h3v1H29zM1 17h1v1H1zM5 17h1v1H5zM8 17h1v1H8zM10 17h1v1H10zM23 17h1v1H23zM26 17h2v1H26zM30 17h1v1H30zM2 18h1v1H2zM4 18h3v1H4zM8 18h1v1H8zM10 18h1v1H10zM23 18h1v1H23zM25,18 h8v1H25zM0 19h2v1H0zM4 19h1v1H4zM7 19h2v1H7zM10 19h1v1H10zM22 19h2v1H22zM25 19h1v1H25zM28 19h2v1H28zM32,19 h1v1H32zM0 20h2v1H0zM3 20h5v1H3zM23 20h5v1H23zM31,20 h2v1H31zM1 21h2v1H1zM7 21h1v1H7zM9 21h2v1H9zM24 21h2v1H24zM27 21h1v1H27zM31,21 h2v1H31zM0 22h2v1H0zM3 22h1v1H3zM5 22h3v1H5zM11 22h2v1H11zM14 22h1v1H14zM16 22h1v1H16zM18 22h1v1H18zM20 22h3v1H20zM24 22h4v1H24zM29 22h1v1H29zM31,22 h2v1H31zM3 23h2v1H3zM7 23h5v1H7zM13 23h2v1H13zM20 23h1v1H20zM22 23h3v1H22zM27 23h2v1H27zM32,23 h1v1H32zM0 24h3v1H0zM6 24h2v1H6zM10 24h1v1H10zM12 24h1v1H12zM15 24h1v1H15zM17 24h1v1H17zM19 24h1v1H19zM24 24h6v1H24zM8 25h2v1H8zM11 25h1v1H11zM14 25h4v1H14zM20 25h1v1H20zM24 25h1v1H24zM28 25h1v1H28zM30,25 h3v1H30zM0 26h7v1H0zM8 26h3v1H8zM13 26h1v1H13zM15 26h1v1H15zM17 26h2v1H17zM21 26h2v1H21zM24 26h1v1H24zM26 26h1v1H26zM28 26h1v1H28zM30 26h1v1H30zM32,26 h1v1H32zM0 27h1v1H0zM6 27h1v1H6zM8 27h4v1H8zM14 27h2v1H14zM17 27h1v1H17zM22 27h3v1H22zM28 27h2v1H28zM31,27 h2v1H31zM0 28h1v1H0zM2 28h3v1H2zM6 28h1v1H6zM10 28h1v1H10zM12 28h2v1H12zM15 28h1v1H15zM17 28h1v1H17zM19 28h11v1H19zM0 29h1v1H0zM2 29h3v1H2zM6 29h1v1H6zM10 29h1v1H10zM15 29h4v1H15zM20 29h3v1H20zM24 29h2v1H24zM27 29h2v1H27zM31 29h1v1H31zM0 30h1v1H0zM2 30h3v1H2zM6 30h1v1H6zM8 30h1v1H8zM10 30h5v1H10zM16 30h5v1H16zM24 30h1v1H24zM28 30h1v1H28zM30,30 h3v1H30zM0 31h1v1H0zM6 31h1v1H6zM10 31h5v1H10zM16 31h4v1H16zM21 31h1v1H21zM24 31h2v1H24zM0 32h7v1H0zM9 32h1v1H9zM12 32h1v1H12zM14 32h4v1H14zM19 32h3v1H19zM23 32h2v1H23zM26 32h1v1H26zM28 32h1v1H28zM30 32h1v1H30zM32,32 h1v1H32z" shape-rendering="crispEdges"/><image xlink:href="data:image/svg+xml,%3Csvg xmlns='http://www.w3.org/2000/svg' width='2000' height='2000' viewBox='0 0 2000 2000' fill='none'%3E%3Cpath d='M1113.74 600.049L1372.44 335.418L1523.55 488.182L1251.55 745.595H1633.55V958.503H1249.14L1522.34 1223.13L1371.23 1372.29L1000.11 1000.6L628.994 1372.29L479.097 1223.13L752.297 958.503H367.882V745.595H749.88L477.888 488.182L627.785 335.418L886.48 600.049V223.551H1111.33V600.049H1113.74ZM888.898 1264.03H1113.74V1769.24H888.898V1264.03Z' fill='%23000000'/%3E%3C/svg%3E" height="9.625" width="9.625" x="11.6875" y="11.6875" preserveAspectRatio="none"/></svg>